<?xml version="1.0" encoding="UTF-8" standalone="no"?>
<svg
   height="512px"
   id="Layer_1"
   version="1.1"
   viewBox="0 0 512 512"
   width="512px"
   xml:space="preserve"
   sodipodi:docname="arrow.svg"
   style="enable-background:new 0 0 512 512;"
   inkscape:version="1.1.1 (3bf5ae0d25, 2021-09-20)"
   xmlns:inkscape="http://www.inkscape.org/namespaces/inkscape"
   xmlns:sodipodi="http://sodipodi.sourceforge.net/DTD/sodipodi-0.dtd"
   xmlns="http://www.w3.org/2000/svg"
   xmlns:svg="http://www.w3.org/2000/svg"><defs
     id="defs7" /><sodipodi:namedview
     id="namedview5"
     pagecolor="#ffffff"
     bordercolor="#666666"
     borderopacity="1.0"
     inkscape:pageshadow="2"
     inkscape:pageopacity="0.0"
     inkscape:pagecheckerboard="0"
     showgrid="false"
     inkscape:zoom="1.625"
     inkscape:cx="176"
     inkscape:cy="137.53846"
     inkscape:window-width="1920"
     inkscape:window-height="1017"
     inkscape:window-x="-8"
     inkscape:window-y="-8"
     inkscape:window-maximized="1"
     inkscape:current-layer="Layer_1" /><path
     d="M322.7,128.4L423,233.4c6,5.8,9,13.7,9,22.4c0,8.7-3,16.5-9,22.4L322.7,383.6c-11.9,12.5-31.3,12.5-43.2,0  c-11.9-12.5-11.9-32.7,0-45.2l48.2-50.4h-217C93.7,288,80,273.7,80,256c0-17.7,13.7-32,30.6-32h217l-48.2-50.4  c-11.9-12.5-11.9-32.7,0-45.2C291.4,115.9,310.7,115.9,322.7,128.4z"
     id="path2"
     style="fill:#ffffff" /></svg>
